<svg width="168" height="48" xmlns="http://www.w3.org/2000/svg">
 <g>
  <title>Layer 1</title>
  <g id="svg_1">
   <rect id="svg_2" width="24" height="24" fill="none" y="288" x="388"/>
   <path id="svg_4" fill="#026c9c" d="m395.426,306l12.574,0c-0.003,0.93 -0.022,1.623 -0.113,2.17c-0.11,0.653 -0.31,0.998 -0.616,1.244c-0.307,0.246 -0.737,0.407 -1.55,0.494c-0.837,0.09 -1.946,0.092 -3.536,0.092l-4.43,0c-1.59,0 -2.7,-0.001 -3.536,-0.092c-0.813,-0.087 -1.243,-0.248 -1.55,-0.494s-0.506,-0.591 -0.616,-1.243l-0.022,-0.151c-0.04,-0.291 -0.06,-0.437 0.066,-0.78c0.127,-0.344 0.181,-0.397 0.291,-0.505a2.6,2.6 0 0 1 1.285,-0.667c0.29,-0.062 0.67,-0.068 1.753,-0.068" stroke-width="0.5" stroke="#026c9c"/>
   <path id="svg_5" fill="#026c9c" d="m392.727,290.733c0.306,-0.308 0.734,-0.508 1.544,-0.618c0.834,-0.113 1.938,-0.115 3.522,-0.115l4.414,0c1.584,0 2.688,0.002 3.522,0.115c0.81,0.11 1.238,0.31 1.544,0.618c0.305,0.308 0.504,0.74 0.613,1.557c0.112,0.84 0.114,1.955 0.114,3.552l0,10.158l-12.574,0c-1.084,0 -1.462,0.006 -1.753,0.068c-0.513,0.11 -0.96,0.347 -1.285,0.667c-0.11,0.108 -0.164,0.161 -0.291,0.505a1.3,1.3 0 0 0 -0.097,0.46l0,-11.858c0,-1.597 0.002,-2.711 0.114,-3.552c0.109,-0.816 0.308,-1.249 0.613,-1.557" opacity="0.5" stroke-width="0.5" stroke="#026c9c"/>
   <path id="svg_6" fill="#026c9c" d="m395.25,295a0.75,0.75 0 0 1 0.75,-0.75l8,0a0.75,0.75 0 0 1 0,1.5l-8,0a0.75,0.75 0 0 1 -0.75,-0.75m0.75,2.75a0.75,0.75 0 0 0 0,1.5l5,0a0.75,0.75 0 0 0 0,-1.5l-5,0z" stroke-width="0.5" stroke="#026c9c"/>
  </g>
  <text fill="#000000" stroke="#000" stroke-width="0" x="414" y="307.5" id="svg_3" font-size="24" font-family="'Archivo'" text-anchor="start" xml:space="preserve">CSHub</text>
  <g stroke="null" id="svg_8">
   <rect stroke="null" x="10.39453" y="1.44444" fill="none" height="44" width="42" id="svg_9"/>
   <path stroke="#026c9c" stroke-width="0.5" d="m23.39003,34.44444l22.0045,0c-0.00525,1.705 -0.0385,2.9755 -0.19775,3.97833c-0.1925,1.19717 -0.5425,1.82967 -1.078,2.28067c-0.53725,0.451 -1.28975,0.74617 -2.7125,0.90567c-1.46475,0.165 -3.4055,0.16867 -6.188,0.16867l-7.7525,0c-2.7825,0 -4.725,-0.00183 -6.188,-0.16867c-1.42275,-0.1595 -2.17525,-0.45467 -2.7125,-0.90567s-0.8855,-1.0835 -1.078,-2.27883l-0.0385,-0.27683c-0.07,-0.5335 -0.105,-0.80117 0.1155,-1.43c0.22225,-0.63067 0.31675,-0.72783 0.50925,-0.92583a4.55,4.76667 0 0 1 2.24875,-1.22283c0.5075,-0.11367 1.1725,-0.12467 3.06775,-0.12467" fill="#026c9c" id="svg_10"/>
   <path stroke="#026c9c" stroke-width="0.5" opacity="0.5" d="m18.66678,6.45494c0.5355,-0.56467 1.2845,-0.93133 2.702,-1.133c1.4595,-0.20717 3.3915,-0.21083 6.1635,-0.21083l7.7245,0c2.772,0 4.704,0.00367 6.1635,0.21083c1.4175,0.20167 2.1665,0.56833 2.702,1.133c0.53375,0.56467 0.882,1.35667 1.07275,2.8545c0.196,1.54 0.1995,3.58417 0.1995,6.512l0,18.623l-22.0045,0c-1.897,0 -2.5585,0.011 -3.06775,0.12467c-0.89775,0.20167 -1.68,0.63617 -2.24875,1.22283c-0.1925,0.198 -0.287,0.29517 -0.50925,0.92583a2.275,2.38333 0 0 0 -0.16975,0.84333l0,-21.73967c0,-2.92783 0.0035,-4.97017 0.1995,-6.512c0.19075,-1.496 0.539,-2.28983 1.07275,-2.8545" fill="#026c9c" id="svg_11"/>
   <path stroke="#026c9c" stroke-width="0.5" d="m23.08203,14.27777a1.3125,1.375 0 0 1 1.3125,-1.375l14,0a1.3125,1.375 0 0 1 0,2.75l-14,0a1.3125,1.375 0 0 1 -1.3125,-1.375m1.3125,5.04167a1.3125,1.375 0 0 0 0,2.75l8.75,0a1.3125,1.375 0 0 0 0,-2.75l-8.75,0z" fill="#026c9c" id="svg_12"/>
  </g>
  <text transform="matrix(1.27378 0 0 1.32449 -24.9649 -2.09967)" stroke="#000" xml:space="preserve" text-anchor="start" font-family="'JetBrains Mono'" font-size="24" id="svg_7" y="29.05555" x="67.62895" stroke-width="0" fill="#000000">CSHub</text>
 </g>

</svg>