<svg width="100" height="48" xmlns="http://www.w3.org/2000/svg">
 <g>
  <title>Layer 1</title>
  <g id="svg_1">
   <rect x="388" y="288" fill="none" height="24" width="24" id="svg_2"/>
   <path stroke="#026c9c" stroke-width="0.5" d="m395.426,306l12.574,0c-0.003,0.93 -0.022,1.623 -0.113,2.17c-0.11,0.653 -0.31,0.998 -0.616,1.244c-0.307,0.246 -0.737,0.407 -1.55,0.494c-0.837,0.09 -1.946,0.092 -3.536,0.092l-4.43,0c-1.59,0 -2.7,-0.001 -3.536,-0.092c-0.813,-0.087 -1.243,-0.248 -1.55,-0.494s-0.506,-0.591 -0.616,-1.243l-0.022,-0.151c-0.04,-0.291 -0.06,-0.437 0.066,-0.78c0.127,-0.344 0.181,-0.397 0.291,-0.505a2.6,2.6 0 0 1 1.285,-0.667c0.29,-0.062 0.67,-0.068 1.753,-0.068" fill="#026c9c" id="svg_4"/>
   <path stroke="#026c9c" stroke-width="0.5" opacity="0.5" d="m392.727,290.733c0.306,-0.308 0.734,-0.508 1.544,-0.618c0.834,-0.113 1.938,-0.115 3.522,-0.115l4.414,0c1.584,0 2.688,0.002 3.522,0.115c0.81,0.11 1.238,0.31 1.544,0.618c0.305,0.308 0.504,0.74 0.613,1.557c0.112,0.84 0.114,1.955 0.114,3.552l0,10.158l-12.574,0c-1.084,0 -1.462,0.006 -1.753,0.068c-0.513,0.11 -0.96,0.347 -1.285,0.667c-0.11,0.108 -0.164,0.161 -0.291,0.505a1.3,1.3 0 0 0 -0.097,0.46l0,-11.858c0,-1.597 0.002,-2.711 0.114,-3.552c0.109,-0.816 0.308,-1.249 0.613,-1.557" fill="#026c9c" id="svg_5"/>
   <path stroke="#026c9c" stroke-width="0.5" d="m395.25,295a0.75,0.75 0 0 1 0.75,-0.75l8,0a0.75,0.75 0 0 1 0,1.5l-8,0a0.75,0.75 0 0 1 -0.75,-0.75m0.75,2.75a0.75,0.75 0 0 0 0,1.5l5,0a0.75,0.75 0 0 0 0,-1.5l-5,0z" fill="#026c9c" id="svg_6"/>
  </g>
  <text xml:space="preserve" text-anchor="start" font-family="'Archivo'" font-size="24" id="svg_3" y="307.5" x="414" stroke-width="0" stroke="#000" fill="#000000">CSHub</text>
  <g id="svg_8">
   <rect id="svg_9" width="24" height="24" fill="none" y="11.44444" x="0.39453"/>
   <path id="svg_10" fill="#026c9c" d="m7.82053,29.44444l12.574,0c-0.003,0.93 -0.022,1.623 -0.113,2.17c-0.11,0.653 -0.31,0.998 -0.616,1.244c-0.307,0.246 -0.737,0.407 -1.55,0.494c-0.837,0.09 -1.946,0.092 -3.536,0.092l-4.43,0c-1.59,0 -2.7,-0.001 -3.536,-0.092c-0.813,-0.087 -1.243,-0.248 -1.55,-0.494s-0.506,-0.591 -0.616,-1.243l-0.022,-0.151c-0.04,-0.291 -0.06,-0.437 0.066,-0.78c0.127,-0.344 0.181,-0.397 0.291,-0.505a2.6,2.6 0 0 1 1.285,-0.667c0.29,-0.062 0.67,-0.068 1.753,-0.068" stroke-width="0.5" stroke="#026c9c"/>
   <path id="svg_11" fill="#026c9c" d="m5.12153,14.17744c0.306,-0.308 0.734,-0.508 1.544,-0.618c0.834,-0.113 1.938,-0.115 3.522,-0.115l4.414,0c1.584,0 2.688,0.002 3.522,0.115c0.81,0.11 1.238,0.31 1.544,0.618c0.305,0.308 0.504,0.74 0.613,1.557c0.112,0.84 0.114,1.955 0.114,3.552l0,10.158l-12.574,0c-1.084,0 -1.462,0.006 -1.753,0.068c-0.513,0.11 -0.96,0.347 -1.285,0.667c-0.11,0.108 -0.164,0.161 -0.291,0.505a1.3,1.3 0 0 0 -0.097,0.46l0,-11.858c0,-1.597 0.002,-2.711 0.114,-3.552c0.109,-0.816 0.308,-1.249 0.613,-1.557" opacity="0.5" stroke-width="0.5" stroke="#026c9c"/>
   <path id="svg_12" fill="#026c9c" d="m7.64453,18.44444a0.75,0.75 0 0 1 0.75,-0.75l8,0a0.75,0.75 0 0 1 0,1.5l-8,0a0.75,0.75 0 0 1 -0.75,-0.75m0.75,2.75a0.75,0.75 0 0 0 0,1.5l5,0a0.75,0.75 0 0 0 0,-1.5l-5,0z" stroke-width="0.5" stroke="#026c9c"/>
  </g>
  <text fill="#000000" stroke="#000" stroke-width="0" x="24.98414" y="32.05555" id="svg_7" font-size="24" font-family="'Asap'" text-anchor="start" xml:space="preserve">CSHub</text>
 </g>

</svg>